<svg viewBox="0 0 511.999 511.999" xmlns="http://www.w3.org/2000/svg" xmlns:xlink="http://www.w3.org/1999/xlink" id="Capa_1" overflow="hidden"><path d="M444.458 487.641 283.628 326.811 326.795 283.633 487.635 444.474 504.706 504.713Z" fill="#EFEFEF"/><path d="M193.137 417.711C154.311 378.886 154.202 315.607 192.896 276.652L276.643 192.905C295.489 174.185 320.497 163.877 347.061 163.877 373.752 163.877 398.844 174.27 417.716 193.143L420.393 195.843 328.246 287.989 289.413 326.813 287.983 328.263 195.831 420.406 193.137 417.711Z" fill="#FF4F4F"/><path d="M109.823 196.473 196.467 109.829 280.998 194.36 196.04 279.305C195.99 279.355 195.938 279.405 195.894 279.455L194.449 281.102 109.823 196.473Z" fill="#CC3F3F"/><path d="M204.74 5.002 198.472 113.632 113.626 198.478 5.007 204.747Z" fill="#FF4F4F"/><path d="M262.559 267.328 209.277 320.61C205.268 324.619 205.268 331.119 209.277 335.129 211.282 337.134 213.909 338.136 216.536 338.136 219.163 338.136 221.79 337.134 223.795 335.129L277.077 281.847C281.086 277.838 281.086 271.338 277.077 267.328 273.068 263.319 266.57 263.319 262.559 267.328Z"/><path d="M288.845 265.827C302.056 265.827 302.078 245.295 288.845 245.295 275.634 245.295 275.612 265.827 288.845 265.827Z"/><path d="M10.268 212.652C10.465 212.652 10.664 212.647 10.862 212.635L108.721 206.987 180.203 278.47C145.355 320.89 147.751 383.942 187.328 423.517L188.57 424.759C190.495 426.684 193.107 427.767 195.829 427.767 195.829 427.767 195.829 427.767 195.83 427.767 198.553 427.767 201.163 426.686 203.088 424.76L286.524 341.324 438.272 493.07C439.511 494.309 441.047 495.209 442.733 495.688L498.929 511.611C499.853 511.873 500.793 512 501.728 512 504.414 512 507.037 510.945 508.988 508.993 511.619 506.362 512.62 502.514 511.606 498.935L495.683 442.749C495.206 441.063 494.304 439.528 493.065 438.288L341.313 286.537 424.755 203.095C428.753 199.097 428.765 192.619 424.784 188.605L423.522 187.333C383.941 147.754 320.885 145.358 278.462 180.208L206.98 108.726 212.627 10.856C212.872 6.603 210.466 2.64 206.578 0.897 202.69-0.846 198.13-0.006 195.118 3.006L3.012 195.128C-0.001 198.141-0.839 202.7 0.903 206.588 2.565 210.293 6.244 212.652 10.268 212.652ZM196.467 127.251 263.573 194.357 194.347 263.575 127.245 196.472 196.467 127.251ZM476.658 450.918 486.839 486.845 450.902 476.663 301.044 326.807 326.794 301.057 476.658 450.918ZM402.693 196.119 319.613 279.206C319.588 279.231 319.561 279.251 319.536 279.276L279.263 319.54C279.193 319.61 279.134 319.686 279.066 319.758L196.122 402.693C167.922 368.426 169.736 317.459 201.626 285.344L285.107 201.862 285.336 201.634C317.462 169.733 368.447 167.928 402.693 196.119ZM190.578 36.588 186.443 108.237 108.231 186.449 36.591 190.584 190.578 36.588Z"/><g></g><g></g><g></g><g></g><g></g><g></g><g></g><g></g><g></g><g></g><g></g><g></g><g></g><g></g><g></g></svg>